<?xml version="1.0" encoding="UTF-8" standalone="no"?>
<svg
   xmlns:dc="http://purl.org/dc/elements/1.1/"
   xmlns:cc="http://creativecommons.org/ns#"
   xmlns:rdf="http://www.w3.org/1999/02/22-rdf-syntax-ns#"
   xmlns:svg="http://www.w3.org/2000/svg"
   xmlns="http://www.w3.org/2000/svg"
   xmlns:sodipodi="http://sodipodi.sourceforge.net/DTD/sodipodi-0.dtd"
   xmlns:inkscape="http://www.inkscape.org/namespaces/inkscape"
   height="64"
   width="64"
   version="1.1"
   id="Capa_1"
   x="0px"
   y="0px"
   viewBox="0 0 64 64"
   xml:space="preserve"
   sodipodi:docname="menu.svg"
   inkscape:version="1.0rc1 (09960d6f05, 2020-04-09)"><metadata
   id="metadata61"><rdf:RDF><cc:Work
       rdf:about=""><dc:format>image/svg+xml</dc:format><dc:type
         rdf:resource="http://purl.org/dc/dcmitype/StillImage" /><dc:title></dc:title></cc:Work></rdf:RDF></metadata><defs
   id="defs59" /><sodipodi:namedview
   inkscape:document-rotation="0"
   pagecolor="#ffffff"
   bordercolor="#666666"
   borderopacity="1"
   objecttolerance="10"
   gridtolerance="10"
   guidetolerance="10"
   inkscape:pageopacity="0"
   inkscape:pageshadow="2"
   inkscape:window-width="2560"
   inkscape:window-height="1377"
   id="namedview57"
   showgrid="false"
   inkscape:zoom="0.921875"
   inkscape:cx="224.60303"
   inkscape:cy="93.728764"
   inkscape:window-x="-8"
   inkscape:window-y="-8"
   inkscape:window-maximized="1"
   inkscape:current-layer="Capa_1" />


<g
   transform="scale(0.125)"
   id="g862"><g
     style="fill:#f06f65;fill-opacity:1"
     id="g6">
	<g
   style="fill:#f06f65;fill-opacity:1"
   id="g4">
		<path
   style="fill:#f06f65;fill-opacity:1"
   id="path2"
   d="m 432,0 h -76 c -44.112,0 -80,35.888 -80,80 v 76 c 0,44.112 35.888,80 80,80 h 76 c 44.112,0 80,-35.888 80,-80 V 80 C 512,35.888 476.112,0 432,0 Z m 40,156 c 0,22.056 -17.944,40 -40,40 h -76 c -22.056,0 -40,-17.944 -40,-40 V 80 c 0,-22.056 17.944,-40 40,-40 h 76 c 22.056,0 40,17.944 40,40 z"
   inkscape:connector-curvature="0" />
	</g>
</g><g
     style="fill:#5bf09b;fill-opacity:1"
     id="g12">
	<g
   style="fill:#5bf09b;fill-opacity:1"
   id="g10">
		<path
   style="fill:#5bf09b;fill-opacity:1"
   id="path8"
   d="M 156,0 H 80 C 35.888,0 0,35.888 0,80 v 76 c 0,44.112 35.888,80 80,80 h 76 c 44.112,0 80,-35.888 80,-80 V 80 C 236,35.888 200.112,0 156,0 Z m 40,156 c 0,22.056 -17.944,40 -40,40 H 80 C 57.944,196 40,178.056 40,156 V 80 C 40,57.944 57.944,40 80,40 h 76 c 22.056,0 40,17.944 40,40 z"
   inkscape:connector-curvature="0" />
	</g>
</g><g
     style="fill:#6e68f0;fill-opacity:1"
     id="g18">
	<g
   style="fill:#6e68f0;fill-opacity:1"
   id="g16">
		<path
   style="fill:#6e68f0;fill-opacity:1"
   id="path14"
   d="M 156,276 H 80 C 35.888,276 0,311.888 0,356 v 76 c 0,44.112 35.888,80 80,80 h 76 c 44.112,0 80,-35.888 80,-80 v -76 c 0,-44.112 -35.888,-80 -80,-80 z m 40,156 c 0,22.056 -17.944,40 -40,40 H 80 C 57.944,472 40,454.056 40,432 v -76 c 0,-22.056 17.944,-40 40,-40 h 76 c 22.056,0 40,17.944 40,40 z"
   inkscape:connector-curvature="0" />
	</g>
</g></g>

<g
   id="g26">
</g>
<g
   id="g28">
</g>
<g
   id="g30">
</g>
<g
   id="g32">
</g>
<g
   id="g34">
</g>
<g
   id="g36">
</g>
<g
   id="g38">
</g>
<g
   id="g40">
</g>
<g
   id="g42">
</g>
<g
   id="g44">
</g>
<g
   id="g46">
</g>
<g
   id="g48">
</g>
<g
   id="g50">
</g>
<g
   id="g52">
</g>
<g
   id="g54">
</g>
</svg>
