# Blender v2.91.0 OBJ File: ''
# www.blender.org
mtllib Articulation.mtl
o Cylinder004001
v 0.015000 0.060000 0.020000
v 0.015000 0.050000 0.045000
v 0.015000 0.060000 0.045000
v 0.015000 0.050000 0.020000
v 0.000000 0.050000 0.020000
v 0.000000 0.050000 0.045000
v 0.015000 0.010000 0.020000
v 0.015000 0.010000 0.045000
v 0.000000 0.010000 0.020000
v 0.000000 0.010000 0.045000
v 0.015000 -0.000000 0.045000
v 0.015000 -0.000000 0.020000
v -0.004786 0.049419 0.020000
v -0.004786 0.049419 0.045000
v -0.009294 0.047709 0.020000
v -0.009294 0.047709 0.045000
v -0.013262 0.044970 0.020000
v -0.013262 0.044970 0.045000
v -0.016460 0.041361 0.020000
v -0.016460 0.041361 0.045000
v -0.018700 0.037092 0.020000
v -0.018700 0.037092 0.045000
v -0.019854 0.032411 0.020000
v -0.019854 0.032411 0.045000
v -0.019854 0.027589 0.045000
v -0.019854 0.027589 0.020000
v -0.018700 0.022908 0.045000
v -0.018700 0.022908 0.020000
v -0.016460 0.018639 0.045000
v -0.016460 0.018639 0.020000
v -0.013262 0.015030 0.045000
v -0.013262 0.015030 0.020000
v -0.009294 0.012291 0.045000
v -0.009294 0.012291 0.020000
v -0.004786 0.010581 0.045000
v -0.004786 0.010581 0.020000
v -0.021213 0.008787 0.020000
v -0.016667 0.005056 0.020000
v -0.027716 0.018519 0.020000
v -0.024944 0.013333 0.020000
v -0.011481 0.002284 0.020000
v -0.029424 0.024147 0.020000
v -0.005853 0.000576 0.020000
v -0.030000 0.030000 0.020000
v 0.000000 0.010000 0.020000
v 0.000000 -0.000000 0.020000
v -0.029424 0.035853 0.020000
v -0.027716 0.041481 0.020000
v -0.024944 0.046667 0.020000
v -0.021213 0.051213 0.020000
v -0.016667 0.054944 0.020000
v -0.011481 0.057716 0.020000
v -0.005853 0.059424 0.020000
v 0.000000 0.050000 0.020000
v 0.000000 0.060000 0.020000
v 0.000000 0.060000 0.000000
v -0.005853 0.059424 0.000000
v -0.011481 0.057716 0.000000
v -0.016667 0.054944 0.000000
v -0.021213 0.051213 0.000000
v -0.024944 0.046667 0.000000
v -0.027716 0.041481 0.000000
v -0.029424 0.035853 0.000000
v -0.030000 0.030000 0.000000
v -0.029424 0.024147 0.000000
v -0.027716 0.018519 0.000000
v -0.024944 0.013333 0.000000
v -0.021213 0.008787 0.000000
v -0.016667 0.005056 0.000000
v -0.011481 0.002284 0.000000
v -0.005853 0.000576 0.000000
v 0.000000 0.000000 0.000000
v -0.006631 0.022515 0.045000
v -0.008230 0.024319 0.045000
v -0.004647 0.021145 0.045000
v -0.009350 0.026454 0.045000
v -0.002393 0.020291 0.045000
v -0.009927 0.028795 0.045000
v 0.000000 0.020000 0.045000
v -0.009927 0.031205 0.045000
v 0.002225 0.020251 0.045000
v -0.009350 0.033546 0.045000
v 0.004339 0.020990 0.045000
v -0.008230 0.035681 0.045000
v 0.006235 0.022182 0.045000
v 0.007818 0.023765 0.045000
v -0.006631 0.037485 0.045000
v 0.009010 0.025661 0.045000
v 0.009749 0.027775 0.045000
v -0.004647 0.038855 0.045000
v -0.002393 0.039709 0.045000
v 0.042160 0.005885 0.045000
v 0.041257 0.006684 0.045000
v 0.040573 0.007676 0.045000
v 0.043227 0.005325 0.045000
v 0.040145 0.008803 0.045000
v 0.040000 0.010000 0.045000
v 0.000000 0.040000 0.045000
v 0.002225 0.039749 0.045000
v 0.004339 0.039010 0.045000
v 0.040145 0.011197 0.045000
v 0.040573 0.012324 0.045000
v 0.041257 0.013316 0.045000
v 0.010000 0.030000 0.045000
v 0.055000 -0.000000 0.045000
v 0.044397 0.005036 0.045000
v 0.045603 0.005036 0.045000
v 0.046773 0.005325 0.045000
v 0.047840 0.005885 0.045000
v 0.042160 0.014115 0.045000
v 0.055000 0.005000 0.045000
v 0.048743 0.006684 0.045000
v 0.049427 0.007676 0.045000
v 0.049855 0.008803 0.045000
v 0.050000 0.010000 0.045000
v 0.049855 0.011197 0.045000
v 0.060000 0.005000 0.045000
v 0.049427 0.012324 0.045000
v 0.048743 0.013316 0.045000
v 0.009010 0.034339 0.045000
v 0.009749 0.032225 0.045000
v 0.007818 0.036235 0.045000
v 0.006235 0.037818 0.045000
v 0.041257 0.046684 0.045000
v 0.042160 0.045885 0.045000
v 0.040573 0.047676 0.045000
v 0.043227 0.045325 0.045000
v 0.043227 0.014675 0.045000
v 0.040145 0.048803 0.045000
v 0.044397 0.045036 0.045000
v 0.044397 0.014964 0.045000
v 0.040000 0.050000 0.045000
v 0.045603 0.045036 0.045000
v 0.045603 0.014964 0.045000
v 0.040145 0.051197 0.045000
v 0.046773 0.045325 0.045000
v 0.046773 0.014675 0.045000
v 0.040573 0.052324 0.045000
v 0.047840 0.045885 0.045000
v 0.047840 0.014115 0.045000
v 0.041257 0.053316 0.045000
v 0.048743 0.046684 0.045000
v 0.042160 0.054115 0.045000
v 0.043227 0.054675 0.045000
v 0.055000 0.055000 0.045000
v 0.050000 0.050000 0.045000
v 0.049855 0.048803 0.045000
v 0.049855 0.051197 0.045000
v 0.049427 0.052324 0.045000
v 0.048743 0.053316 0.045000
v 0.047840 0.054115 0.045000
v 0.055000 0.060000 0.045000
v 0.046773 0.054675 0.045000
v 0.045603 0.054964 0.045000
v 0.044397 0.054964 0.045000
v 0.060000 0.055000 0.045000
v 0.049427 0.047676 0.045000
v 0.055000 0.005000 0.020000
v 0.055000 -0.000000 0.020000
v 0.060000 0.005000 0.020000
v 0.060000 -0.000000 0.020000
v 0.055000 0.060000 0.020000
v 0.055000 0.055000 0.020000
v 0.060000 0.060000 0.020000
v 0.060000 0.055000 0.020000
v -0.002393 0.020291 0.000000
v 0.000000 0.020000 0.000000
v 0.010000 0.030000 0.000000
v 0.009749 0.032225 0.000000
v 0.002225 0.020251 0.000000
v 0.010000 0.030000 0.045000
v 0.009010 0.034339 0.000000
v 0.004339 0.020990 0.000000
v 0.007818 0.036235 0.000000
v 0.006235 0.022182 0.000000
v 0.006235 0.037818 0.000000
v 0.004339 0.039010 0.000000
v 0.007818 0.023765 0.000000
v 0.009010 0.025661 0.000000
v 0.009749 0.027775 0.000000
v 0.002225 0.039749 0.000000
v 0.000000 0.040000 0.000000
v 0.000000 0.040000 0.045000
v -0.002393 0.039709 0.000000
v -0.004647 0.038855 0.000000
v -0.006631 0.037485 0.000000
v -0.008230 0.035681 0.000000
v -0.009350 0.033546 0.000000
v -0.009927 0.031205 0.000000
v -0.009927 0.028795 0.000000
v -0.009350 0.026454 0.000000
v -0.008230 0.024319 0.000000
v -0.006631 0.022515 0.000000
v -0.004647 0.021145 0.000000
v 0.043227 0.005325 0.000000
v 0.044397 0.005036 0.000000
v 0.045603 0.005036 0.000000
v 0.046773 0.005325 0.000000
v 0.050000 0.010000 0.000000
v 0.049855 0.011197 0.000000
v 0.047840 0.005885 0.000000
v 0.049427 0.012324 0.000000
v 0.048743 0.013316 0.000000
v 0.048743 0.006684 0.000000
v 0.049427 0.007676 0.000000
v 0.047840 0.014115 0.000000
v 0.049855 0.008803 0.000000
v 0.046773 0.014675 0.000000
v 0.045603 0.014964 0.000000
v 0.044397 0.014964 0.000000
v 0.043227 0.014675 0.000000
v 0.042160 0.014115 0.000000
v 0.041257 0.013316 0.000000
v 0.040573 0.012324 0.000000
v 0.040145 0.011197 0.000000
v 0.040000 0.010000 0.000000
v 0.040145 0.008803 0.000000
v 0.040573 0.007676 0.000000
v 0.041257 0.006684 0.000000
v 0.042160 0.005885 0.000000
v 0.043227 0.045325 0.000000
v 0.044397 0.045036 0.000000
v 0.045603 0.045036 0.000000
v 0.046773 0.045325 0.000000
v 0.050000 0.050000 0.000000
v 0.049855 0.051197 0.000000
v 0.047840 0.045885 0.000000
v 0.049427 0.052324 0.000000
v 0.048743 0.053316 0.000000
v 0.048743 0.046684 0.000000
v 0.049427 0.047676 0.000000
v 0.047840 0.054115 0.000000
v 0.049855 0.048803 0.000000
v 0.046773 0.054675 0.000000
v 0.045603 0.054964 0.000000
v 0.044397 0.054964 0.000000
v 0.043227 0.054675 0.000000
v 0.042160 0.054115 0.000000
v 0.041257 0.053316 0.000000
v 0.040573 0.052324 0.000000
v 0.040145 0.051197 0.000000
v 0.040000 0.050000 0.000000
v 0.040145 0.048803 0.000000
v 0.040573 0.047676 0.000000
v 0.041257 0.046684 0.000000
v 0.042160 0.045885 0.000000
v 0.060000 0.000000 0.000000
v 0.000000 0.040000 0.000000
v 0.060000 0.060000 0.000000
v 0.010000 0.030000 0.000000
vn -1.0000 0.0000 0.0000
vn 0.0000 1.0000 0.0000
vn 0.0000 -1.0000 -0.0000
vn -0.1205 0.9927 0.0000
vn -0.3546 0.9350 0.0000
vn -0.5681 0.8230 0.0000
vn -0.7485 0.6631 0.0000
vn -0.8855 0.4647 0.0000
vn -0.9709 0.2393 0.0000
vn -0.9709 -0.2393 -0.0000
vn -0.8855 -0.4647 -0.0000
vn -0.7485 -0.6631 -0.0000
vn -0.5681 -0.8230 -0.0000
vn -0.3546 -0.9350 -0.0000
vn -0.1205 -0.9927 -0.0000
vn 0.0000 -0.0000 1.0000
vn -0.0980 0.9952 0.0000
vn -0.2903 0.9569 0.0000
vn -0.4714 0.8819 0.0000
vn -0.6344 0.7730 0.0000
vn -0.7730 0.6344 0.0000
vn -0.8819 0.4714 0.0000
vn -0.9569 0.2903 0.0000
vn -0.9952 0.0980 0.0000
vn -0.9952 -0.0980 0.0000
vn -0.9569 -0.2903 0.0000
vn -0.8819 -0.4714 -0.0000
vn -0.7730 -0.6344 -0.0000
vn -0.6344 -0.7730 -0.0000
vn -0.4714 -0.8819 -0.0000
vn -0.2903 -0.9569 -0.0000
vn -0.0980 -0.9952 -0.0000
vn 1.0000 0.0000 0.0000
vn 0.1205 0.9927 0.0000
vn 0.3546 0.9350 0.0000
vn -0.9937 -0.1120 -0.0000
vn -0.1120 0.9937 0.0000
vn -0.9439 -0.3303 -0.0000
vn -0.3303 0.9439 0.0000
vn -0.8467 -0.5320 -0.0000
vn -0.5320 0.8467 0.0000
vn -0.7071 -0.7071 0.0000
vn -0.5320 -0.8467 0.0000
vn -0.7071 0.7071 0.0000
vn -0.8467 0.5320 0.0000
vn -0.9439 0.3303 0.0000
vn -0.3303 -0.9439 -0.0000
vn -0.1120 -0.9937 -0.0000
vn -0.9937 0.1120 0.0000
vn 0.1205 -0.9927 -0.0000
vn 0.3546 -0.9350 -0.0000
vn 0.5681 -0.8230 -0.0000
vn 0.7485 -0.6631 -0.0000
vn 0.8855 -0.4647 0.0000
vn 0.9709 -0.2393 -0.0000
vn 0.9709 0.2393 0.0000
vn 0.8855 0.4647 0.0000
vn 0.7485 0.6631 0.0000
vn 0.5681 0.8230 0.0000
vn 0.4647 0.8855 0.0000
vn 0.2393 0.9709 0.0000
vn -0.2393 0.9709 0.0000
vn -0.9927 -0.1205 -0.0000
vn -0.4647 0.8855 0.0000
vn -0.9350 -0.3546 -0.0000
vn -0.8230 -0.5681 -0.0000
vn -0.6631 0.7485 0.0000
vn -0.8230 0.5681 0.0000
vn -0.6631 -0.7485 -0.0000
vn -0.9350 0.3546 0.0000
vn -0.4647 -0.8855 -0.0000
vn -0.9927 0.1205 0.0000
vn -0.2393 -0.9709 -0.0000
vn 0.2393 -0.9709 -0.0000
vn 0.4647 -0.8855 -0.0000
vn 0.6631 -0.7485 -0.0000
vn 0.8230 -0.5681 -0.0000
vn 0.9350 -0.3546 -0.0000
vn 0.9927 -0.1205 -0.0000
vn 0.9927 0.1205 0.0000
vn 0.9350 0.3546 0.0000
vn 0.8230 0.5681 0.0000
vn 0.6631 0.7485 0.0000
vn -0.0000 0.0000 -1.0000
usemtl color_bdc3c7
s off
f 1//1 2//1 3//1
f 4//1 2//1 1//1
f 2//2 4//2 5//2
f 2//2 5//2 6//2
f 7//3 8//3 9//3
f 9//3 8//3 10//3
f 7//1 11//1 8//1
f 12//1 11//1 7//1
f 6//4 5//4 13//4
f 14//5 13//5 15//5
f 14//4 6//4 13//4
f 16//6 15//6 17//6
f 16//5 14//5 15//5
f 18//7 17//7 19//7
f 18//6 16//6 17//6
f 20//8 19//8 21//8
f 20//7 18//7 19//7
f 22//9 21//9 23//9
f 22//8 20//8 21//8
f 24//9 22//9 23//9
f 25//1 23//1 26//1
f 25//1 24//1 23//1
f 27//10 26//10 28//10
f 27//10 25//10 26//10
f 29//11 28//11 30//11
f 29//11 27//11 28//11
f 31//12 30//12 32//12
f 31//12 29//12 30//12
f 33//13 32//13 34//13
f 33//13 31//13 32//13
f 35//14 34//14 36//14
f 35//14 33//14 34//14
f 10//15 36//15 9//15
f 10//15 35//15 36//15
f 32//16 37//16 38//16
f 30//16 39//16 40//16
f 30//16 40//16 37//16
f 30//16 37//16 32//16
f 34//16 38//16 41//16
f 34//16 32//16 38//16
f 28//16 42//16 39//16
f 28//16 39//16 30//16
f 36//16 41//16 43//16
f 36//16 34//16 41//16
f 26//16 44//16 42//16
f 26//16 42//16 28//16
f 45//16 43//16 46//16
f 45//16 36//16 43//16
f 23//16 47//16 44//16
f 23//16 44//16 26//16
f 12//16 45//16 46//16
f 21//16 48//16 47//16
f 21//16 47//16 23//16
f 19//16 49//16 48//16
f 19//16 48//16 21//16
f 7//16 45//16 12//16
f 50//16 49//16 19//16
f 17//16 50//16 19//16
f 51//16 50//16 17//16
f 15//16 51//16 17//16
f 52//16 15//16 13//16
f 52//16 51//16 15//16
f 53//16 13//16 54//16
f 53//16 52//16 13//16
f 55//16 53//16 54//16
f 1//16 54//16 4//16
f 1//16 55//16 54//16
f 53//17 56//17 57//17
f 53//17 55//17 56//17
f 52//18 57//18 58//18
f 52//18 53//18 57//18
f 51//19 58//19 59//19
f 51//19 52//19 58//19
f 50//20 59//20 60//20
f 50//20 51//20 59//20
f 49//21 60//21 61//21
f 49//21 50//21 60//21
f 48//22 61//22 62//22
f 48//22 49//22 61//22
f 47//23 62//23 63//23
f 47//23 48//23 62//23
f 44//24 63//24 64//24
f 44//24 47//24 63//24
f 42//25 64//25 65//25
f 42//25 44//25 64//25
f 39//26 65//26 66//26
f 39//26 42//26 65//26
f 40//27 66//27 67//27
f 40//27 39//27 66//27
f 37//28 67//28 68//28
f 37//28 40//28 67//28
f 38//29 68//29 69//29
f 38//29 37//29 68//29
f 41//30 69//30 70//30
f 41//30 38//30 69//30
f 43//31 70//31 71//31
f 43//31 41//31 70//31
f 46//32 43//32 71//32
f 46//32 71//32 72//32
f 73//16 31//16 33//16
f 74//16 31//16 73//16
f 74//16 29//16 31//16
f 75//16 33//16 35//16
f 75//16 73//16 33//16
f 76//16 27//16 29//16
f 76//16 29//16 74//16
f 77//16 35//16 10//16
f 77//16 75//16 35//16
f 78//16 25//16 27//16
f 78//16 27//16 76//16
f 79//16 77//16 10//16
f 80//16 22//16 24//16
f 80//16 24//16 25//16
f 80//16 25//16 78//16
f 81//16 79//16 10//16
f 82//16 22//16 80//16
f 20//16 22//16 82//16
f 83//16 10//16 8//16
f 83//16 81//16 10//16
f 84//16 20//16 82//16
f 85//16 83//16 8//16
f 86//16 85//16 8//16
f 18//16 84//16 87//16
f 18//16 20//16 84//16
f 88//16 86//16 8//16
f 89//16 88//16 8//16
f 16//16 87//16 90//16
f 16//16 18//16 87//16
f 14//16 90//16 91//16
f 14//16 16//16 90//16
f 92//16 93//16 11//16
f 94//16 11//16 93//16
f 95//16 92//16 11//16
f 96//16 8//16 11//16
f 96//16 11//16 94//16
f 97//16 8//16 96//16
f 6//16 91//16 98//16
f 6//16 99//16 100//16
f 6//16 98//16 99//16
f 6//16 14//16 91//16
f 101//16 8//16 97//16
f 102//16 8//16 101//16
f 103//16 8//16 102//16
f 103//16 104//16 89//16
f 103//16 89//16 8//16
f 105//16 106//16 95//16
f 105//16 107//16 106//16
f 105//16 108//16 107//16
f 105//16 109//16 108//16
f 105//16 95//16 11//16
f 110//16 104//16 103//16
f 111//16 109//16 105//16
f 111//16 112//16 109//16
f 111//16 113//16 112//16
f 111//16 114//16 113//16
f 115//16 114//16 111//16
f 116//16 115//16 111//16
f 117//16 116//16 111//16
f 117//16 118//16 116//16
f 117//16 119//16 118//16
f 2//16 120//16 121//16
f 2//16 122//16 120//16
f 2//16 123//16 122//16
f 2//16 100//16 123//16
f 2//16 6//16 100//16
f 124//16 2//16 121//16
f 124//16 121//16 104//16
f 125//16 124//16 104//16
f 125//16 104//16 110//16
f 126//16 2//16 124//16
f 127//16 125//16 110//16
f 127//16 110//16 128//16
f 129//16 2//16 126//16
f 130//16 128//16 131//16
f 130//16 127//16 128//16
f 132//16 2//16 129//16
f 133//16 130//16 131//16
f 133//16 131//16 134//16
f 135//16 3//16 2//16
f 135//16 2//16 132//16
f 136//16 133//16 134//16
f 136//16 134//16 137//16
f 138//16 3//16 135//16
f 139//16 137//16 140//16
f 139//16 136//16 137//16
f 141//16 3//16 138//16
f 142//16 139//16 140//16
f 142//16 140//16 119//16
f 143//16 3//16 141//16
f 144//16 3//16 143//16
f 145//16 146//16 147//16
f 145//16 148//16 146//16
f 145//16 149//16 148//16
f 145//16 150//16 149//16
f 145//16 151//16 150//16
f 152//16 151//16 145//16
f 152//16 3//16 144//16
f 152//16 153//16 151//16
f 152//16 154//16 153//16
f 152//16 155//16 154//16
f 152//16 144//16 155//16
f 156//16 157//16 142//16
f 156//16 145//16 147//16
f 156//16 147//16 157//16
f 156//16 119//16 117//16
f 156//16 142//16 119//16
f 105//33 158//33 111//33
f 105//33 159//33 158//33
f 160//16 159//16 161//16
f 160//16 158//16 159//16
f 160//3 117//3 158//3
f 158//3 117//3 111//3
f 145//33 162//33 152//33
f 145//33 163//33 162//33
f 164//16 163//16 165//16
f 164//16 162//16 163//16
f 156//2 165//2 163//2
f 156//2 163//2 145//2
f 166//34 77//34 167//34
f 75//35 77//35 166//35
f 77//34 79//34 167//34
f 168//36 121//36 169//36
f 167//37 81//37 170//37
f 171//36 121//36 168//36
f 79//37 81//37 167//37
f 169//38 120//38 172//38
f 170//39 83//39 173//39
f 172//40 120//40 174//40
f 121//38 120//38 169//38
f 81//39 83//39 170//39
f 173//41 85//41 175//41
f 120//40 122//40 174//40
f 83//41 85//41 173//41
f 174//42 123//42 176//42
f 176//43 123//43 177//43
f 175//44 86//44 178//44
f 122//42 123//42 174//42
f 85//44 86//44 175//44
f 178//45 88//45 179//45
f 123//43 100//43 177//43
f 86//45 88//45 178//45
f 179//46 89//46 180//46
f 177//47 99//47 181//47
f 88//46 89//46 179//46
f 181//48 99//48 182//48
f 100//47 99//47 177//47
f 180//49 171//49 168//49
f 89//49 171//49 180//49
f 99//48 183//48 182//48
f 182//50 91//50 184//50
f 184//51 91//51 185//51
f 183//50 91//50 182//50
f 91//51 90//51 185//51
f 90//52 87//52 185//52
f 185//52 87//52 186//52
f 87//53 84//53 186//53
f 186//53 84//53 187//53
f 187//54 84//54 188//54
f 84//54 82//54 188//54
f 188//55 82//55 189//55
f 189//33 80//33 190//33
f 82//55 80//55 189//55
f 80//33 78//33 190//33
f 78//56 76//56 190//56
f 190//56 76//56 191//56
f 191//57 76//57 192//57
f 76//57 74//57 192//57
f 192//58 74//58 193//58
f 74//58 73//58 193//58
f 193//59 75//59 194//59
f 194//35 75//35 166//35
f 73//59 75//59 193//59
f 92//60 95//60 195//60
f 95//61 106//61 195//61
f 195//61 106//61 196//61
f 196//2 106//2 197//2
f 106//2 107//2 197//2
f 197//62 107//62 198//62
f 199//63 116//63 200//63
f 115//63 116//63 199//63
f 107//62 108//62 198//62
f 198//64 108//64 201//64
f 200//65 118//65 202//65
f 116//65 118//65 200//65
f 108//64 109//64 201//64
f 202//66 119//66 203//66
f 118//66 119//66 202//66
f 109//67 112//67 201//67
f 201//67 112//67 204//67
f 204//68 112//68 205//68
f 203//69 140//69 206//69
f 119//69 140//69 203//69
f 112//68 113//68 205//68
f 205//70 113//70 207//70
f 206//71 137//71 208//71
f 113//70 114//70 207//70
f 140//71 137//71 206//71
f 207//72 115//72 199//72
f 114//72 115//72 207//72
f 208//73 134//73 209//73
f 137//73 134//73 208//73
f 209//3 131//3 210//3
f 134//3 131//3 209//3
f 210//74 128//74 211//74
f 131//74 128//74 210//74
f 211//75 110//75 212//75
f 128//75 110//75 211//75
f 212//76 103//76 213//76
f 110//76 103//76 212//76
f 213//77 102//77 214//77
f 103//77 102//77 213//77
f 102//78 101//78 214//78
f 214//78 101//78 215//78
f 215//79 101//79 216//79
f 101//79 97//79 216//79
f 216//80 97//80 217//80
f 97//80 96//80 217//80
f 96//81 94//81 217//81
f 217//81 94//81 218//81
f 218//82 94//82 219//82
f 94//82 93//82 219//82
f 219//83 93//83 220//83
f 93//83 92//83 220//83
f 220//60 92//60 195//60
f 125//60 127//60 221//60
f 127//61 130//61 221//61
f 221//61 130//61 222//61
f 222//2 130//2 223//2
f 130//2 133//2 223//2
f 223//62 133//62 224//62
f 225//63 148//63 226//63
f 146//63 148//63 225//63
f 133//62 136//62 224//62
f 224//64 136//64 227//64
f 226//65 149//65 228//65
f 148//65 149//65 226//65
f 136//64 139//64 227//64
f 228//66 150//66 229//66
f 149//66 150//66 228//66
f 139//67 142//67 227//67
f 227//67 142//67 230//67
f 230//68 142//68 231//68
f 229//69 151//69 232//69
f 150//69 151//69 229//69
f 142//68 157//68 231//68
f 231//70 157//70 233//70
f 232//71 153//71 234//71
f 157//70 147//70 233//70
f 151//71 153//71 232//71
f 233//72 146//72 225//72
f 147//72 146//72 233//72
f 234//73 154//73 235//73
f 153//73 154//73 234//73
f 235//3 155//3 236//3
f 154//3 155//3 235//3
f 236//74 144//74 237//74
f 155//74 144//74 236//74
f 237//75 143//75 238//75
f 144//75 143//75 237//75
f 238//76 141//76 239//76
f 143//76 141//76 238//76
f 239//77 138//77 240//77
f 141//77 138//77 239//77
f 138//78 135//78 240//78
f 240//78 135//78 241//78
f 241//79 135//79 242//79
f 135//79 132//79 242//79
f 242//80 132//80 243//80
f 132//80 129//80 243//80
f 129//81 126//81 243//81
f 243//81 126//81 244//81
f 244//82 126//82 245//82
f 126//82 124//82 245//82
f 245//83 124//83 246//83
f 124//83 125//83 246//83
f 246//60 125//60 221//60
f 72//3 12//3 46//3
f 159//3 105//3 11//3
f 159//3 11//3 12//3
f 247//3 161//3 159//3
f 247//3 159//3 12//3
f 247//3 12//3 72//3
f 223//84 208//84 209//84
f 223//84 209//84 210//84
f 223//84 224//84 208//84
f 179//84 214//84 215//84
f 66//84 191//84 192//84
f 201//84 204//84 247//84
f 66//84 192//84 67//84
f 205//84 247//84 204//84
f 179//84 215//84 178//84
f 170//84 173//84 72//84
f 72//84 196//84 247//84
f 65//84 190//84 191//84
f 198//84 201//84 247//84
f 65//84 191//84 66//84
f 180//84 214//84 179//84
f 72//84 217//84 218//84
f 207//84 247//84 205//84
f 72//84 218//84 219//84
f 72//84 219//84 220//84
f 72//84 220//84 195//84
f 72//84 195//84 196//84
f 56//84 176//84 177//84
f 56//84 177//84 181//84
f 180//84 213//84 214//84
f 197//84 198//84 247//84
f 56//84 181//84 248//84
f 56//84 241//84 176//84
f 249//84 247//84 202//84
f 249//84 202//84 231//84
f 56//84 237//84 238//84
f 249//84 231//84 233//84
f 199//84 247//84 207//84
f 56//84 238//84 239//84
f 249//84 233//84 225//84
f 56//84 239//84 240//84
f 56//84 240//84 241//84
f 222//84 223//84 210//84
f 167//84 72//84 71//84
f 222//84 210//84 211//84
f 167//84 170//84 72//84
f 196//84 197//84 247//84
f 64//84 189//84 190//84
f 64//84 190//84 65//84
f 226//84 249//84 225//84
f 250//84 213//84 180//84
f 200//84 247//84 199//84
f 63//84 188//84 189//84
f 250//84 212//84 213//84
f 221//84 222//84 211//84
f 250//84 246//84 212//84
f 221//84 211//84 212//84
f 63//84 189//84 64//84
f 57//84 248//84 184//84
f 57//84 56//84 248//84
f 250//84 245//84 246//84
f 202//84 247//84 200//84
f 228//84 249//84 226//84
f 58//84 184//84 185//84
f 58//84 57//84 184//84
f 246//84 221//84 212//84
f 169//84 245//84 250//84
f 62//84 187//84 188//84
f 62//84 188//84 63//84
f 59//84 185//84 186//84
f 169//84 244//84 245//84
f 229//84 249//84 228//84
f 166//84 71//84 70//84
f 59//84 58//84 185//84
f 166//84 167//84 71//84
f 61//84 187//84 62//84
f 232//84 249//84 229//84
f 60//84 59//84 186//84
f 60//84 186//84 187//84
f 172//84 244//84 169//84
f 60//84 187//84 61//84
f 56//84 249//84 236//84
f 56//84 236//84 237//84
f 172//84 243//84 244//84
f 194//84 70//84 69//84
f 194//84 166//84 70//84
f 234//84 249//84 232//84
f 174//84 243//84 172//84
f 174//84 242//84 243//84
f 193//84 194//84 69//84
f 235//84 249//84 234//84
f 68//84 193//84 69//84
f 176//84 242//84 174//84
f 176//84 241//84 242//84
f 236//84 249//84 235//84
f 192//84 193//84 68//84
f 230//84 203//84 206//84
f 67//84 192//84 68//84
f 227//84 230//84 206//84
f 227//84 206//84 208//84
f 175//84 217//84 72//84
f 175//84 216//84 217//84
f 231//84 203//84 230//84
f 231//84 202//84 203//84
f 178//84 216//84 175//84
f 224//84 227//84 208//84
f 178//84 215//84 216//84
f 173//84 175//84 72//84
f 1//2 56//2 55//2
f 249//2 56//2 1//2
f 162//2 249//2 1//2
f 164//2 249//2 162//2
f 152//2 1//2 3//2
f 152//2 162//2 1//2
f 165//33 249//33 164//33
f 160//33 247//33 249//33
f 160//33 249//33 165//33
f 161//33 247//33 160//33
f 117//33 165//33 156//33
f 117//33 160//33 165//33
