<?xml version="1.0" encoding="UTF-8" standalone="no"?>
<svg
   xmlns:dc="http://purl.org/dc/elements/1.1/"
   xmlns:cc="http://creativecommons.org/ns#"
   xmlns:rdf="http://www.w3.org/1999/02/22-rdf-syntax-ns#"
   xmlns:svg="http://www.w3.org/2000/svg"
   xmlns="http://www.w3.org/2000/svg"
   xmlns:sodipodi="http://sodipodi.sourceforge.net/DTD/sodipodi-0.dtd"
   xmlns:inkscape="http://www.inkscape.org/namespaces/inkscape"
   sodipodi:docname="help_button.svg"
   inkscape:version="1.0rc1 (09960d6f05, 2020-04-09)"
   id="svg3807"
   version="1.1"
   viewBox="0 0 16.933333 16.933334"
   height="64"
   width="64">
  <defs
     id="defs3801" />
  <sodipodi:namedview
     inkscape:window-maximized="0"
     inkscape:window-y="142"
     inkscape:window-x="1144"
     inkscape:window-height="1198"
     inkscape:window-width="1452"
     units="px"
     showgrid="false"
     inkscape:document-rotation="0"
     inkscape:current-layer="layer1"
     inkscape:document-units="mm"
     inkscape:cy="106.68749"
     inkscape:cx="49.852067"
     inkscape:zoom="2.8"
     inkscape:pageshadow="2"
     inkscape:pageopacity="0.0"
     borderopacity="1.0"
     bordercolor="#666666"
     pagecolor="#ffffff"
     id="base" />
  <metadata
     id="metadata3804">
    <rdf:RDF>
      <cc:Work
         rdf:about="">
        <dc:format>image/svg+xml</dc:format>
        <dc:type
           rdf:resource="http://purl.org/dc/dcmitype/StillImage" />
        <dc:title></dc:title>
      </cc:Work>
    </rdf:RDF>
  </metadata>
  <g
     id="layer1"
     inkscape:groupmode="layer"
     inkscape:label="Calque 1">
    <g
       style="font-style:normal;font-variant:normal;font-weight:normal;font-stretch:normal;font-size:17.8599px;line-height:1.25;font-family:'Arial Rounded MT Bold';-inkscape-font-specification:'Arial Rounded MT Bold, ';letter-spacing:0px;word-spacing:0px;stroke:#ececec;stroke-width:0.446498"
       id="text1803-6"
       transform="scale(0.99802541,1.0019785)"
       aria-label="?">
      <path
         id="path4388"
         style="font-style:normal;font-variant:normal;font-weight:normal;font-stretch:normal;font-family:'Arial Rounded MT Bold';-inkscape-font-specification:'Arial Rounded MT Bold, ';fill:#ffffff;stroke:#ececec;stroke-width:0.446498"
         d="m 4.1230909,5.4936465 q 0,-0.8284622 0.5319599,-1.6743656 0.5319599,-0.8546241 1.5522764,-1.412746 1.0203166,-0.5581218 2.3807386,-0.5581218 1.2644948,0 2.2324872,0.4709153 0.967993,0.4621947 1.491232,1.2644948 0.53196,0.8023002 0.53196,1.7441308 0,0.7412556 -0.305223,1.2993775 -0.296502,0.5581219 -0.715094,0.9679926 -0.40987,0.4011501 -1.482511,1.360422 -0.296502,0.2703403 -0.4796357,0.479636 -0.1744131,0.200575 -0.2616196,0.3749881 -0.087207,0.1656925 -0.1395305,0.3401058 -0.043603,0.165692 -0.1395305,0.593004 -0.1656924,0.906948 -1.0377578,0.906948 -0.453474,0 -0.7674176,-0.296502 -0.3052229,-0.296502 -0.3052229,-0.880786 0,-0.732535 0.226737,-1.2644949 Q 7.6636765,8.6679645 8.0386646,8.2668145 8.4136527,7.8569437 9.0502605,7.2988219 9.6083823,6.8104652 9.8525606,6.5662869 10.10546,6.313388 10.271152,6.0081651 q 0.174413,-0.3052229 0.174413,-0.6627697 0,-0.6976524 -0.5232391,-1.1772883 -0.5145186,-0.479636 -1.3342601,-0.479636 -0.959272,0 -1.412746,0.4883566 Q 6.7218458,4.6564637 6.4079023,5.5982943 6.1114,6.5837282 5.2829379,6.5837282 q -0.4883566,0 -0.8284621,-0.3401055 Q 4.1230909,5.8947966 4.1230909,5.4936465 Z m 4.2556792,9.5578365 q -0.5319599,0 -0.93311,-0.340105 -0.3924294,-0.348826 -0.3924294,-0.967993 0,-0.549401 0.3837087,-0.924389 0.3837088,-0.374988 0.9418307,-0.374988 0.5494012,0 0.9243893,0.374988 0.3749881,0.374988 0.3749881,0.924389 0,0.610446 -0.3924294,0.959272 -0.3924294,0.348826 -0.906948,0.348826 z" />
    </g>
  </g>
</svg>
